%TF.GenerationSoftware,KiCad,Pcbnew,(5.1.6)-1*%
%TF.CreationDate,2021-05-12T17:33:29+01:00*%
%TF.ProjectId,HID_KEYPAD,4849445f-4b45-4595-9041-442e6b696361,rev?*%
%TF.SameCoordinates,Original*%
%TF.FileFunction,Legend,Top*%
%TF.FilePolarity,Positive*%
%FSLAX46Y46*%
G04 Gerber Fmt 4.6, Leading zero omitted, Abs format (unit mm)*
G04 Created by KiCad (PCBNEW (5.1.6)-1) date 2021-05-12 17:33:29*
%MOMM*%
%LPD*%
G01*
G04 APERTURE LIST*
%ADD10C,0.120000*%
%ADD11C,0.150000*%
G04 APERTURE END LIST*
D10*
%TO.C,R1*%
X196410000Y-108830000D02*
X196410000Y-111570000D01*
X196410000Y-111570000D02*
X202950000Y-111570000D01*
X202950000Y-111570000D02*
X202950000Y-108830000D01*
X202950000Y-108830000D02*
X196410000Y-108830000D01*
X195640000Y-110200000D02*
X196410000Y-110200000D01*
X203720000Y-110200000D02*
X202950000Y-110200000D01*
%TO.C,D1*%
X160861130Y-56429837D02*
G75*
G02*
X158779039Y-56430000I-1041130J1079837D01*
G01*
X160861130Y-54270163D02*
G75*
G03*
X158779039Y-54270000I-1041130J-1079837D01*
G01*
X161492335Y-56428608D02*
G75*
G02*
X158260000Y-56585516I-1672335J1078608D01*
G01*
X161492335Y-54271392D02*
G75*
G03*
X158260000Y-54114484I-1672335J-1078608D01*
G01*
X158260000Y-54114000D02*
X158260000Y-54270000D01*
X158260000Y-56430000D02*
X158260000Y-56586000D01*
%TO.C,SW1*%
X170450000Y-66900000D02*
X170450000Y-65400000D01*
X169200000Y-62900000D02*
X164700000Y-62900000D01*
X163450000Y-65400000D02*
X163450000Y-66900000D01*
X164700000Y-69400000D02*
X169200000Y-69400000D01*
%TO.C,R4*%
X203720000Y-95470000D02*
X202950000Y-95470000D01*
X195640000Y-95470000D02*
X196410000Y-95470000D01*
X202950000Y-94100000D02*
X196410000Y-94100000D01*
X202950000Y-96840000D02*
X202950000Y-94100000D01*
X196410000Y-96840000D02*
X202950000Y-96840000D01*
X196410000Y-94100000D02*
X196410000Y-96840000D01*
%TO.C,D4*%
X177010000Y-56430000D02*
X177010000Y-56586000D01*
X177010000Y-54114000D02*
X177010000Y-54270000D01*
X179611130Y-56429837D02*
G75*
G02*
X177529039Y-56430000I-1041130J1079837D01*
G01*
X179611130Y-54270163D02*
G75*
G03*
X177529039Y-54270000I-1041130J-1079837D01*
G01*
X180242335Y-56428608D02*
G75*
G02*
X177010000Y-56585516I-1672335J1078608D01*
G01*
X180242335Y-54271392D02*
G75*
G03*
X177010000Y-54114484I-1672335J-1078608D01*
G01*
D11*
%TO.C,SW18*%
X170700000Y-134250000D02*
X170700000Y-133250000D01*
X170700000Y-147250000D02*
X171700000Y-147250000D01*
X171700000Y-133250000D02*
X170700000Y-133250000D01*
X170700000Y-147250000D02*
X170700000Y-146250000D01*
X184700000Y-146250000D02*
X184700000Y-147250000D01*
X184700000Y-133250000D02*
X183700000Y-133250000D01*
X183700000Y-147250000D02*
X184700000Y-147250000D01*
X184700000Y-133250000D02*
X184700000Y-134250000D01*
%TO.C,SW17*%
X170700000Y-115200000D02*
X170700000Y-114200000D01*
X170700000Y-128200000D02*
X171700000Y-128200000D01*
X171700000Y-114200000D02*
X170700000Y-114200000D01*
X170700000Y-128200000D02*
X170700000Y-127200000D01*
X184700000Y-127200000D02*
X184700000Y-128200000D01*
X184700000Y-114200000D02*
X183700000Y-114200000D01*
X183700000Y-128200000D02*
X184700000Y-128200000D01*
X184700000Y-114200000D02*
X184700000Y-115200000D01*
%TO.C,SW16*%
X170700000Y-96150000D02*
X170700000Y-95150000D01*
X170700000Y-109150000D02*
X171700000Y-109150000D01*
X171700000Y-95150000D02*
X170700000Y-95150000D01*
X170700000Y-109150000D02*
X170700000Y-108150000D01*
X184700000Y-108150000D02*
X184700000Y-109150000D01*
X184700000Y-95150000D02*
X183700000Y-95150000D01*
X183700000Y-109150000D02*
X184700000Y-109150000D01*
X184700000Y-95150000D02*
X184700000Y-96150000D01*
%TO.C,SW15*%
X170700000Y-77100000D02*
X170700000Y-76100000D01*
X170700000Y-90100000D02*
X171700000Y-90100000D01*
X171700000Y-76100000D02*
X170700000Y-76100000D01*
X170700000Y-90100000D02*
X170700000Y-89100000D01*
X184700000Y-89100000D02*
X184700000Y-90100000D01*
X184700000Y-76100000D02*
X183700000Y-76100000D01*
X183700000Y-90100000D02*
X184700000Y-90100000D01*
X184700000Y-76100000D02*
X184700000Y-77100000D01*
%TO.C,SW14*%
X151650000Y-134250000D02*
X151650000Y-133250000D01*
X151650000Y-147250000D02*
X152650000Y-147250000D01*
X152650000Y-133250000D02*
X151650000Y-133250000D01*
X151650000Y-147250000D02*
X151650000Y-146250000D01*
X165650000Y-146250000D02*
X165650000Y-147250000D01*
X165650000Y-133250000D02*
X164650000Y-133250000D01*
X164650000Y-147250000D02*
X165650000Y-147250000D01*
X165650000Y-133250000D02*
X165650000Y-134250000D01*
%TO.C,SW13*%
X151650000Y-115200000D02*
X151650000Y-114200000D01*
X151650000Y-128200000D02*
X152650000Y-128200000D01*
X152650000Y-114200000D02*
X151650000Y-114200000D01*
X151650000Y-128200000D02*
X151650000Y-127200000D01*
X165650000Y-127200000D02*
X165650000Y-128200000D01*
X165650000Y-114200000D02*
X164650000Y-114200000D01*
X164650000Y-128200000D02*
X165650000Y-128200000D01*
X165650000Y-114200000D02*
X165650000Y-115200000D01*
%TO.C,SW12*%
X151650000Y-96150000D02*
X151650000Y-95150000D01*
X151650000Y-109150000D02*
X152650000Y-109150000D01*
X152650000Y-95150000D02*
X151650000Y-95150000D01*
X151650000Y-109150000D02*
X151650000Y-108150000D01*
X165650000Y-108150000D02*
X165650000Y-109150000D01*
X165650000Y-95150000D02*
X164650000Y-95150000D01*
X164650000Y-109150000D02*
X165650000Y-109150000D01*
X165650000Y-95150000D02*
X165650000Y-96150000D01*
%TO.C,SW11*%
X151650000Y-77100000D02*
X151650000Y-76100000D01*
X151650000Y-90100000D02*
X152650000Y-90100000D01*
X152650000Y-76100000D02*
X151650000Y-76100000D01*
X151650000Y-90100000D02*
X151650000Y-89100000D01*
X165650000Y-89100000D02*
X165650000Y-90100000D01*
X165650000Y-76100000D02*
X164650000Y-76100000D01*
X164650000Y-90100000D02*
X165650000Y-90100000D01*
X165650000Y-76100000D02*
X165650000Y-77100000D01*
%TO.C,SW10*%
X132600000Y-134250000D02*
X132600000Y-133250000D01*
X132600000Y-147250000D02*
X133600000Y-147250000D01*
X133600000Y-133250000D02*
X132600000Y-133250000D01*
X132600000Y-147250000D02*
X132600000Y-146250000D01*
X146600000Y-146250000D02*
X146600000Y-147250000D01*
X146600000Y-133250000D02*
X145600000Y-133250000D01*
X145600000Y-147250000D02*
X146600000Y-147250000D01*
X146600000Y-133250000D02*
X146600000Y-134250000D01*
%TO.C,SW9*%
X132600000Y-115200000D02*
X132600000Y-114200000D01*
X132600000Y-128200000D02*
X133600000Y-128200000D01*
X133600000Y-114200000D02*
X132600000Y-114200000D01*
X132600000Y-128200000D02*
X132600000Y-127200000D01*
X146600000Y-127200000D02*
X146600000Y-128200000D01*
X146600000Y-114200000D02*
X145600000Y-114200000D01*
X145600000Y-128200000D02*
X146600000Y-128200000D01*
X146600000Y-114200000D02*
X146600000Y-115200000D01*
%TO.C,SW8*%
X132600000Y-96150000D02*
X132600000Y-95150000D01*
X132600000Y-109150000D02*
X133600000Y-109150000D01*
X133600000Y-95150000D02*
X132600000Y-95150000D01*
X132600000Y-109150000D02*
X132600000Y-108150000D01*
X146600000Y-108150000D02*
X146600000Y-109150000D01*
X146600000Y-95150000D02*
X145600000Y-95150000D01*
X145600000Y-109150000D02*
X146600000Y-109150000D01*
X146600000Y-95150000D02*
X146600000Y-96150000D01*
%TO.C,SW7*%
X132600000Y-77100000D02*
X132600000Y-76100000D01*
X132600000Y-90100000D02*
X133600000Y-90100000D01*
X133600000Y-76100000D02*
X132600000Y-76100000D01*
X132600000Y-90100000D02*
X132600000Y-89100000D01*
X146600000Y-89100000D02*
X146600000Y-90100000D01*
X146600000Y-76100000D02*
X145600000Y-76100000D01*
X145600000Y-90100000D02*
X146600000Y-90100000D01*
X146600000Y-76100000D02*
X146600000Y-77100000D01*
%TO.C,SW6*%
X113550000Y-134250000D02*
X113550000Y-133250000D01*
X113550000Y-147250000D02*
X114550000Y-147250000D01*
X114550000Y-133250000D02*
X113550000Y-133250000D01*
X113550000Y-147250000D02*
X113550000Y-146250000D01*
X127550000Y-146250000D02*
X127550000Y-147250000D01*
X127550000Y-133250000D02*
X126550000Y-133250000D01*
X126550000Y-147250000D02*
X127550000Y-147250000D01*
X127550000Y-133250000D02*
X127550000Y-134250000D01*
%TO.C,SW5*%
X113550000Y-115200000D02*
X113550000Y-114200000D01*
X113550000Y-128200000D02*
X114550000Y-128200000D01*
X114550000Y-114200000D02*
X113550000Y-114200000D01*
X113550000Y-128200000D02*
X113550000Y-127200000D01*
X127550000Y-127200000D02*
X127550000Y-128200000D01*
X127550000Y-114200000D02*
X126550000Y-114200000D01*
X126550000Y-128200000D02*
X127550000Y-128200000D01*
X127550000Y-114200000D02*
X127550000Y-115200000D01*
%TO.C,SW4*%
X113550000Y-96150000D02*
X113550000Y-95150000D01*
X113550000Y-109150000D02*
X114550000Y-109150000D01*
X114550000Y-95150000D02*
X113550000Y-95150000D01*
X113550000Y-109150000D02*
X113550000Y-108150000D01*
X127550000Y-108150000D02*
X127550000Y-109150000D01*
X127550000Y-95150000D02*
X126550000Y-95150000D01*
X126550000Y-109150000D02*
X127550000Y-109150000D01*
X127550000Y-95150000D02*
X127550000Y-96150000D01*
%TO.C,SW3*%
X113550000Y-77100000D02*
X113550000Y-76100000D01*
X113550000Y-90100000D02*
X114550000Y-90100000D01*
X114550000Y-76100000D02*
X113550000Y-76100000D01*
X113550000Y-90100000D02*
X113550000Y-89100000D01*
X127550000Y-89100000D02*
X127550000Y-90100000D01*
X127550000Y-76100000D02*
X126550000Y-76100000D01*
X126550000Y-90100000D02*
X127550000Y-90100000D01*
X127550000Y-76100000D02*
X127550000Y-77100000D01*
%TO.C,U1*%
X124110000Y-69790000D02*
X154590000Y-69790000D01*
X124110000Y-69790000D02*
X124110000Y-64710000D01*
X124110000Y-64710000D02*
X121570000Y-64710000D01*
X121570000Y-64710000D02*
X121570000Y-57090000D01*
X121570000Y-57090000D02*
X124110000Y-57090000D01*
X124110000Y-57090000D02*
X124110000Y-52010000D01*
X124110000Y-52010000D02*
X154590000Y-52010000D01*
X154590000Y-52010000D02*
X154590000Y-69790000D01*
D10*
%TO.C,SW2*%
X196950000Y-59000000D02*
X197950000Y-59000000D01*
X197450000Y-58500000D02*
X197450000Y-59500000D01*
X203550000Y-62500000D02*
X203550000Y-64900000D01*
X203550000Y-57700000D02*
X203550000Y-60300000D01*
X203550000Y-53100000D02*
X203550000Y-55500000D01*
X190250000Y-54900000D02*
X189950000Y-55200000D01*
X189650000Y-54900000D02*
X190250000Y-54900000D01*
X189950000Y-55200000D02*
X189650000Y-54900000D01*
X191350000Y-53100000D02*
X191350000Y-64900000D01*
X195450000Y-53100000D02*
X191350000Y-53100000D01*
X195450000Y-64900000D02*
X191350000Y-64900000D01*
X203550000Y-64900000D02*
X199450000Y-64900000D01*
X199450000Y-53100000D02*
X203550000Y-53100000D01*
X200450000Y-59000000D02*
G75*
G03*
X200450000Y-59000000I-3000000J0D01*
G01*
%TO.C,R6*%
X196410000Y-84280000D02*
X196410000Y-87020000D01*
X196410000Y-87020000D02*
X202950000Y-87020000D01*
X202950000Y-87020000D02*
X202950000Y-84280000D01*
X202950000Y-84280000D02*
X196410000Y-84280000D01*
X195640000Y-85650000D02*
X196410000Y-85650000D01*
X203720000Y-85650000D02*
X202950000Y-85650000D01*
%TO.C,R5*%
X196410000Y-89190000D02*
X196410000Y-91930000D01*
X196410000Y-91930000D02*
X202950000Y-91930000D01*
X202950000Y-91930000D02*
X202950000Y-89190000D01*
X202950000Y-89190000D02*
X196410000Y-89190000D01*
X195640000Y-90560000D02*
X196410000Y-90560000D01*
X203720000Y-90560000D02*
X202950000Y-90560000D01*
%TO.C,R3*%
X196410000Y-99010000D02*
X196410000Y-101750000D01*
X196410000Y-101750000D02*
X202950000Y-101750000D01*
X202950000Y-101750000D02*
X202950000Y-99010000D01*
X202950000Y-99010000D02*
X196410000Y-99010000D01*
X195640000Y-100380000D02*
X196410000Y-100380000D01*
X203720000Y-100380000D02*
X202950000Y-100380000D01*
%TO.C,R2*%
X196410000Y-103920000D02*
X196410000Y-106660000D01*
X196410000Y-106660000D02*
X202950000Y-106660000D01*
X202950000Y-106660000D02*
X202950000Y-103920000D01*
X202950000Y-103920000D02*
X196410000Y-103920000D01*
X195640000Y-105290000D02*
X196410000Y-105290000D01*
X203720000Y-105290000D02*
X202950000Y-105290000D01*
%TO.C,D3*%
X170760000Y-54114000D02*
X170760000Y-54270000D01*
X170760000Y-56430000D02*
X170760000Y-56586000D01*
X173361130Y-56429837D02*
G75*
G02*
X171279039Y-56430000I-1041130J1079837D01*
G01*
X173361130Y-54270163D02*
G75*
G03*
X171279039Y-54270000I-1041130J-1079837D01*
G01*
X173992335Y-56428608D02*
G75*
G02*
X170760000Y-56585516I-1672335J1078608D01*
G01*
X173992335Y-54271392D02*
G75*
G03*
X170760000Y-54114484I-1672335J-1078608D01*
G01*
%TO.C,D2*%
X164510000Y-54114000D02*
X164510000Y-54270000D01*
X164510000Y-56430000D02*
X164510000Y-56586000D01*
X167111130Y-56429837D02*
G75*
G02*
X165029039Y-56430000I-1041130J1079837D01*
G01*
X167111130Y-54270163D02*
G75*
G03*
X165029039Y-54270000I-1041130J-1079837D01*
G01*
X167742335Y-56428608D02*
G75*
G02*
X164510000Y-56585516I-1672335J1078608D01*
G01*
X167742335Y-54271392D02*
G75*
G03*
X164510000Y-54114484I-1672335J-1078608D01*
G01*
%TO.C,R1*%
D11*
X199513333Y-108282380D02*
X199180000Y-107806190D01*
X198941904Y-108282380D02*
X198941904Y-107282380D01*
X199322857Y-107282380D01*
X199418095Y-107330000D01*
X199465714Y-107377619D01*
X199513333Y-107472857D01*
X199513333Y-107615714D01*
X199465714Y-107710952D01*
X199418095Y-107758571D01*
X199322857Y-107806190D01*
X198941904Y-107806190D01*
X200465714Y-108282380D02*
X199894285Y-108282380D01*
X200180000Y-108282380D02*
X200180000Y-107282380D01*
X200084761Y-107425238D01*
X199989523Y-107520476D01*
X199894285Y-107568095D01*
%TO.C,D1*%
X159081904Y-52842380D02*
X159081904Y-51842380D01*
X159320000Y-51842380D01*
X159462857Y-51890000D01*
X159558095Y-51985238D01*
X159605714Y-52080476D01*
X159653333Y-52270952D01*
X159653333Y-52413809D01*
X159605714Y-52604285D01*
X159558095Y-52699523D01*
X159462857Y-52794761D01*
X159320000Y-52842380D01*
X159081904Y-52842380D01*
X160605714Y-52842380D02*
X160034285Y-52842380D01*
X160320000Y-52842380D02*
X160320000Y-51842380D01*
X160224761Y-51985238D01*
X160129523Y-52080476D01*
X160034285Y-52128095D01*
%TO.C,SW1*%
X165616666Y-62304761D02*
X165759523Y-62352380D01*
X165997619Y-62352380D01*
X166092857Y-62304761D01*
X166140476Y-62257142D01*
X166188095Y-62161904D01*
X166188095Y-62066666D01*
X166140476Y-61971428D01*
X166092857Y-61923809D01*
X165997619Y-61876190D01*
X165807142Y-61828571D01*
X165711904Y-61780952D01*
X165664285Y-61733333D01*
X165616666Y-61638095D01*
X165616666Y-61542857D01*
X165664285Y-61447619D01*
X165711904Y-61400000D01*
X165807142Y-61352380D01*
X166045238Y-61352380D01*
X166188095Y-61400000D01*
X166521428Y-61352380D02*
X166759523Y-62352380D01*
X166950000Y-61638095D01*
X167140476Y-62352380D01*
X167378571Y-61352380D01*
X168283333Y-62352380D02*
X167711904Y-62352380D01*
X167997619Y-62352380D02*
X167997619Y-61352380D01*
X167902380Y-61495238D01*
X167807142Y-61590476D01*
X167711904Y-61638095D01*
X165080952Y-71102380D02*
X165080952Y-70435714D01*
X165080952Y-70626190D02*
X165128571Y-70530952D01*
X165176190Y-70483333D01*
X165271428Y-70435714D01*
X165366666Y-70435714D01*
X166080952Y-71054761D02*
X165985714Y-71102380D01*
X165795238Y-71102380D01*
X165700000Y-71054761D01*
X165652380Y-70959523D01*
X165652380Y-70578571D01*
X165700000Y-70483333D01*
X165795238Y-70435714D01*
X165985714Y-70435714D01*
X166080952Y-70483333D01*
X166128571Y-70578571D01*
X166128571Y-70673809D01*
X165652380Y-70769047D01*
X166509523Y-71054761D02*
X166604761Y-71102380D01*
X166795238Y-71102380D01*
X166890476Y-71054761D01*
X166938095Y-70959523D01*
X166938095Y-70911904D01*
X166890476Y-70816666D01*
X166795238Y-70769047D01*
X166652380Y-70769047D01*
X166557142Y-70721428D01*
X166509523Y-70626190D01*
X166509523Y-70578571D01*
X166557142Y-70483333D01*
X166652380Y-70435714D01*
X166795238Y-70435714D01*
X166890476Y-70483333D01*
X167747619Y-71054761D02*
X167652380Y-71102380D01*
X167461904Y-71102380D01*
X167366666Y-71054761D01*
X167319047Y-70959523D01*
X167319047Y-70578571D01*
X167366666Y-70483333D01*
X167461904Y-70435714D01*
X167652380Y-70435714D01*
X167747619Y-70483333D01*
X167795238Y-70578571D01*
X167795238Y-70673809D01*
X167319047Y-70769047D01*
X168080952Y-70435714D02*
X168461904Y-70435714D01*
X168223809Y-70102380D02*
X168223809Y-70959523D01*
X168271428Y-71054761D01*
X168366666Y-71102380D01*
X168461904Y-71102380D01*
%TO.C,H3*%
X201738095Y-140852380D02*
X201738095Y-139852380D01*
X201738095Y-140328571D02*
X202309523Y-140328571D01*
X202309523Y-140852380D02*
X202309523Y-139852380D01*
X202690476Y-139852380D02*
X203309523Y-139852380D01*
X202976190Y-140233333D01*
X203119047Y-140233333D01*
X203214285Y-140280952D01*
X203261904Y-140328571D01*
X203309523Y-140423809D01*
X203309523Y-140661904D01*
X203261904Y-140757142D01*
X203214285Y-140804761D01*
X203119047Y-140852380D01*
X202833333Y-140852380D01*
X202738095Y-140804761D01*
X202690476Y-140757142D01*
%TO.C,H2*%
X201738095Y-71002380D02*
X201738095Y-70002380D01*
X201738095Y-70478571D02*
X202309523Y-70478571D01*
X202309523Y-71002380D02*
X202309523Y-70002380D01*
X202738095Y-70097619D02*
X202785714Y-70050000D01*
X202880952Y-70002380D01*
X203119047Y-70002380D01*
X203214285Y-70050000D01*
X203261904Y-70097619D01*
X203309523Y-70192857D01*
X203309523Y-70288095D01*
X203261904Y-70430952D01*
X202690476Y-71002380D01*
X203309523Y-71002380D01*
%TO.C,H1*%
X115788095Y-59452380D02*
X115788095Y-58452380D01*
X115788095Y-58928571D02*
X116359523Y-58928571D01*
X116359523Y-59452380D02*
X116359523Y-58452380D01*
X117359523Y-59452380D02*
X116788095Y-59452380D01*
X117073809Y-59452380D02*
X117073809Y-58452380D01*
X116978571Y-58595238D01*
X116883333Y-58690476D01*
X116788095Y-58738095D01*
%TO.C,R4*%
X199513333Y-93552380D02*
X199180000Y-93076190D01*
X198941904Y-93552380D02*
X198941904Y-92552380D01*
X199322857Y-92552380D01*
X199418095Y-92600000D01*
X199465714Y-92647619D01*
X199513333Y-92742857D01*
X199513333Y-92885714D01*
X199465714Y-92980952D01*
X199418095Y-93028571D01*
X199322857Y-93076190D01*
X198941904Y-93076190D01*
X200370476Y-92885714D02*
X200370476Y-93552380D01*
X200132380Y-92504761D02*
X199894285Y-93219047D01*
X200513333Y-93219047D01*
%TO.C,D4*%
X177831904Y-52842380D02*
X177831904Y-51842380D01*
X178070000Y-51842380D01*
X178212857Y-51890000D01*
X178308095Y-51985238D01*
X178355714Y-52080476D01*
X178403333Y-52270952D01*
X178403333Y-52413809D01*
X178355714Y-52604285D01*
X178308095Y-52699523D01*
X178212857Y-52794761D01*
X178070000Y-52842380D01*
X177831904Y-52842380D01*
X179260476Y-52175714D02*
X179260476Y-52842380D01*
X179022380Y-51794761D02*
X178784285Y-52509047D01*
X179403333Y-52509047D01*
%TO.C,SW18*%
X175890476Y-132399761D02*
X176033333Y-132447380D01*
X176271428Y-132447380D01*
X176366666Y-132399761D01*
X176414285Y-132352142D01*
X176461904Y-132256904D01*
X176461904Y-132161666D01*
X176414285Y-132066428D01*
X176366666Y-132018809D01*
X176271428Y-131971190D01*
X176080952Y-131923571D01*
X175985714Y-131875952D01*
X175938095Y-131828333D01*
X175890476Y-131733095D01*
X175890476Y-131637857D01*
X175938095Y-131542619D01*
X175985714Y-131495000D01*
X176080952Y-131447380D01*
X176319047Y-131447380D01*
X176461904Y-131495000D01*
X176795238Y-131447380D02*
X177033333Y-132447380D01*
X177223809Y-131733095D01*
X177414285Y-132447380D01*
X177652380Y-131447380D01*
X178557142Y-132447380D02*
X177985714Y-132447380D01*
X178271428Y-132447380D02*
X178271428Y-131447380D01*
X178176190Y-131590238D01*
X178080952Y-131685476D01*
X177985714Y-131733095D01*
X179128571Y-131875952D02*
X179033333Y-131828333D01*
X178985714Y-131780714D01*
X178938095Y-131685476D01*
X178938095Y-131637857D01*
X178985714Y-131542619D01*
X179033333Y-131495000D01*
X179128571Y-131447380D01*
X179319047Y-131447380D01*
X179414285Y-131495000D01*
X179461904Y-131542619D01*
X179509523Y-131637857D01*
X179509523Y-131685476D01*
X179461904Y-131780714D01*
X179414285Y-131828333D01*
X179319047Y-131875952D01*
X179128571Y-131875952D01*
X179033333Y-131923571D01*
X178985714Y-131971190D01*
X178938095Y-132066428D01*
X178938095Y-132256904D01*
X178985714Y-132352142D01*
X179033333Y-132399761D01*
X179128571Y-132447380D01*
X179319047Y-132447380D01*
X179414285Y-132399761D01*
X179461904Y-132352142D01*
X179509523Y-132256904D01*
X179509523Y-132066428D01*
X179461904Y-131971190D01*
X179414285Y-131923571D01*
X179319047Y-131875952D01*
%TO.C,SW17*%
X175890476Y-113349761D02*
X176033333Y-113397380D01*
X176271428Y-113397380D01*
X176366666Y-113349761D01*
X176414285Y-113302142D01*
X176461904Y-113206904D01*
X176461904Y-113111666D01*
X176414285Y-113016428D01*
X176366666Y-112968809D01*
X176271428Y-112921190D01*
X176080952Y-112873571D01*
X175985714Y-112825952D01*
X175938095Y-112778333D01*
X175890476Y-112683095D01*
X175890476Y-112587857D01*
X175938095Y-112492619D01*
X175985714Y-112445000D01*
X176080952Y-112397380D01*
X176319047Y-112397380D01*
X176461904Y-112445000D01*
X176795238Y-112397380D02*
X177033333Y-113397380D01*
X177223809Y-112683095D01*
X177414285Y-113397380D01*
X177652380Y-112397380D01*
X178557142Y-113397380D02*
X177985714Y-113397380D01*
X178271428Y-113397380D02*
X178271428Y-112397380D01*
X178176190Y-112540238D01*
X178080952Y-112635476D01*
X177985714Y-112683095D01*
X178890476Y-112397380D02*
X179557142Y-112397380D01*
X179128571Y-113397380D01*
%TO.C,SW16*%
X175890476Y-94299761D02*
X176033333Y-94347380D01*
X176271428Y-94347380D01*
X176366666Y-94299761D01*
X176414285Y-94252142D01*
X176461904Y-94156904D01*
X176461904Y-94061666D01*
X176414285Y-93966428D01*
X176366666Y-93918809D01*
X176271428Y-93871190D01*
X176080952Y-93823571D01*
X175985714Y-93775952D01*
X175938095Y-93728333D01*
X175890476Y-93633095D01*
X175890476Y-93537857D01*
X175938095Y-93442619D01*
X175985714Y-93395000D01*
X176080952Y-93347380D01*
X176319047Y-93347380D01*
X176461904Y-93395000D01*
X176795238Y-93347380D02*
X177033333Y-94347380D01*
X177223809Y-93633095D01*
X177414285Y-94347380D01*
X177652380Y-93347380D01*
X178557142Y-94347380D02*
X177985714Y-94347380D01*
X178271428Y-94347380D02*
X178271428Y-93347380D01*
X178176190Y-93490238D01*
X178080952Y-93585476D01*
X177985714Y-93633095D01*
X179414285Y-93347380D02*
X179223809Y-93347380D01*
X179128571Y-93395000D01*
X179080952Y-93442619D01*
X178985714Y-93585476D01*
X178938095Y-93775952D01*
X178938095Y-94156904D01*
X178985714Y-94252142D01*
X179033333Y-94299761D01*
X179128571Y-94347380D01*
X179319047Y-94347380D01*
X179414285Y-94299761D01*
X179461904Y-94252142D01*
X179509523Y-94156904D01*
X179509523Y-93918809D01*
X179461904Y-93823571D01*
X179414285Y-93775952D01*
X179319047Y-93728333D01*
X179128571Y-93728333D01*
X179033333Y-93775952D01*
X178985714Y-93823571D01*
X178938095Y-93918809D01*
%TO.C,SW15*%
X175890476Y-75249761D02*
X176033333Y-75297380D01*
X176271428Y-75297380D01*
X176366666Y-75249761D01*
X176414285Y-75202142D01*
X176461904Y-75106904D01*
X176461904Y-75011666D01*
X176414285Y-74916428D01*
X176366666Y-74868809D01*
X176271428Y-74821190D01*
X176080952Y-74773571D01*
X175985714Y-74725952D01*
X175938095Y-74678333D01*
X175890476Y-74583095D01*
X175890476Y-74487857D01*
X175938095Y-74392619D01*
X175985714Y-74345000D01*
X176080952Y-74297380D01*
X176319047Y-74297380D01*
X176461904Y-74345000D01*
X176795238Y-74297380D02*
X177033333Y-75297380D01*
X177223809Y-74583095D01*
X177414285Y-75297380D01*
X177652380Y-74297380D01*
X178557142Y-75297380D02*
X177985714Y-75297380D01*
X178271428Y-75297380D02*
X178271428Y-74297380D01*
X178176190Y-74440238D01*
X178080952Y-74535476D01*
X177985714Y-74583095D01*
X179461904Y-74297380D02*
X178985714Y-74297380D01*
X178938095Y-74773571D01*
X178985714Y-74725952D01*
X179080952Y-74678333D01*
X179319047Y-74678333D01*
X179414285Y-74725952D01*
X179461904Y-74773571D01*
X179509523Y-74868809D01*
X179509523Y-75106904D01*
X179461904Y-75202142D01*
X179414285Y-75249761D01*
X179319047Y-75297380D01*
X179080952Y-75297380D01*
X178985714Y-75249761D01*
X178938095Y-75202142D01*
%TO.C,SW14*%
X156840476Y-132399761D02*
X156983333Y-132447380D01*
X157221428Y-132447380D01*
X157316666Y-132399761D01*
X157364285Y-132352142D01*
X157411904Y-132256904D01*
X157411904Y-132161666D01*
X157364285Y-132066428D01*
X157316666Y-132018809D01*
X157221428Y-131971190D01*
X157030952Y-131923571D01*
X156935714Y-131875952D01*
X156888095Y-131828333D01*
X156840476Y-131733095D01*
X156840476Y-131637857D01*
X156888095Y-131542619D01*
X156935714Y-131495000D01*
X157030952Y-131447380D01*
X157269047Y-131447380D01*
X157411904Y-131495000D01*
X157745238Y-131447380D02*
X157983333Y-132447380D01*
X158173809Y-131733095D01*
X158364285Y-132447380D01*
X158602380Y-131447380D01*
X159507142Y-132447380D02*
X158935714Y-132447380D01*
X159221428Y-132447380D02*
X159221428Y-131447380D01*
X159126190Y-131590238D01*
X159030952Y-131685476D01*
X158935714Y-131733095D01*
X160364285Y-131780714D02*
X160364285Y-132447380D01*
X160126190Y-131399761D02*
X159888095Y-132114047D01*
X160507142Y-132114047D01*
%TO.C,SW13*%
X156840476Y-113349761D02*
X156983333Y-113397380D01*
X157221428Y-113397380D01*
X157316666Y-113349761D01*
X157364285Y-113302142D01*
X157411904Y-113206904D01*
X157411904Y-113111666D01*
X157364285Y-113016428D01*
X157316666Y-112968809D01*
X157221428Y-112921190D01*
X157030952Y-112873571D01*
X156935714Y-112825952D01*
X156888095Y-112778333D01*
X156840476Y-112683095D01*
X156840476Y-112587857D01*
X156888095Y-112492619D01*
X156935714Y-112445000D01*
X157030952Y-112397380D01*
X157269047Y-112397380D01*
X157411904Y-112445000D01*
X157745238Y-112397380D02*
X157983333Y-113397380D01*
X158173809Y-112683095D01*
X158364285Y-113397380D01*
X158602380Y-112397380D01*
X159507142Y-113397380D02*
X158935714Y-113397380D01*
X159221428Y-113397380D02*
X159221428Y-112397380D01*
X159126190Y-112540238D01*
X159030952Y-112635476D01*
X158935714Y-112683095D01*
X159840476Y-112397380D02*
X160459523Y-112397380D01*
X160126190Y-112778333D01*
X160269047Y-112778333D01*
X160364285Y-112825952D01*
X160411904Y-112873571D01*
X160459523Y-112968809D01*
X160459523Y-113206904D01*
X160411904Y-113302142D01*
X160364285Y-113349761D01*
X160269047Y-113397380D01*
X159983333Y-113397380D01*
X159888095Y-113349761D01*
X159840476Y-113302142D01*
%TO.C,SW12*%
X156840476Y-94299761D02*
X156983333Y-94347380D01*
X157221428Y-94347380D01*
X157316666Y-94299761D01*
X157364285Y-94252142D01*
X157411904Y-94156904D01*
X157411904Y-94061666D01*
X157364285Y-93966428D01*
X157316666Y-93918809D01*
X157221428Y-93871190D01*
X157030952Y-93823571D01*
X156935714Y-93775952D01*
X156888095Y-93728333D01*
X156840476Y-93633095D01*
X156840476Y-93537857D01*
X156888095Y-93442619D01*
X156935714Y-93395000D01*
X157030952Y-93347380D01*
X157269047Y-93347380D01*
X157411904Y-93395000D01*
X157745238Y-93347380D02*
X157983333Y-94347380D01*
X158173809Y-93633095D01*
X158364285Y-94347380D01*
X158602380Y-93347380D01*
X159507142Y-94347380D02*
X158935714Y-94347380D01*
X159221428Y-94347380D02*
X159221428Y-93347380D01*
X159126190Y-93490238D01*
X159030952Y-93585476D01*
X158935714Y-93633095D01*
X159888095Y-93442619D02*
X159935714Y-93395000D01*
X160030952Y-93347380D01*
X160269047Y-93347380D01*
X160364285Y-93395000D01*
X160411904Y-93442619D01*
X160459523Y-93537857D01*
X160459523Y-93633095D01*
X160411904Y-93775952D01*
X159840476Y-94347380D01*
X160459523Y-94347380D01*
%TO.C,SW11*%
X156840476Y-75249761D02*
X156983333Y-75297380D01*
X157221428Y-75297380D01*
X157316666Y-75249761D01*
X157364285Y-75202142D01*
X157411904Y-75106904D01*
X157411904Y-75011666D01*
X157364285Y-74916428D01*
X157316666Y-74868809D01*
X157221428Y-74821190D01*
X157030952Y-74773571D01*
X156935714Y-74725952D01*
X156888095Y-74678333D01*
X156840476Y-74583095D01*
X156840476Y-74487857D01*
X156888095Y-74392619D01*
X156935714Y-74345000D01*
X157030952Y-74297380D01*
X157269047Y-74297380D01*
X157411904Y-74345000D01*
X157745238Y-74297380D02*
X157983333Y-75297380D01*
X158173809Y-74583095D01*
X158364285Y-75297380D01*
X158602380Y-74297380D01*
X159507142Y-75297380D02*
X158935714Y-75297380D01*
X159221428Y-75297380D02*
X159221428Y-74297380D01*
X159126190Y-74440238D01*
X159030952Y-74535476D01*
X158935714Y-74583095D01*
X160459523Y-75297380D02*
X159888095Y-75297380D01*
X160173809Y-75297380D02*
X160173809Y-74297380D01*
X160078571Y-74440238D01*
X159983333Y-74535476D01*
X159888095Y-74583095D01*
%TO.C,SW10*%
X137790476Y-132399761D02*
X137933333Y-132447380D01*
X138171428Y-132447380D01*
X138266666Y-132399761D01*
X138314285Y-132352142D01*
X138361904Y-132256904D01*
X138361904Y-132161666D01*
X138314285Y-132066428D01*
X138266666Y-132018809D01*
X138171428Y-131971190D01*
X137980952Y-131923571D01*
X137885714Y-131875952D01*
X137838095Y-131828333D01*
X137790476Y-131733095D01*
X137790476Y-131637857D01*
X137838095Y-131542619D01*
X137885714Y-131495000D01*
X137980952Y-131447380D01*
X138219047Y-131447380D01*
X138361904Y-131495000D01*
X138695238Y-131447380D02*
X138933333Y-132447380D01*
X139123809Y-131733095D01*
X139314285Y-132447380D01*
X139552380Y-131447380D01*
X140457142Y-132447380D02*
X139885714Y-132447380D01*
X140171428Y-132447380D02*
X140171428Y-131447380D01*
X140076190Y-131590238D01*
X139980952Y-131685476D01*
X139885714Y-131733095D01*
X141076190Y-131447380D02*
X141171428Y-131447380D01*
X141266666Y-131495000D01*
X141314285Y-131542619D01*
X141361904Y-131637857D01*
X141409523Y-131828333D01*
X141409523Y-132066428D01*
X141361904Y-132256904D01*
X141314285Y-132352142D01*
X141266666Y-132399761D01*
X141171428Y-132447380D01*
X141076190Y-132447380D01*
X140980952Y-132399761D01*
X140933333Y-132352142D01*
X140885714Y-132256904D01*
X140838095Y-132066428D01*
X140838095Y-131828333D01*
X140885714Y-131637857D01*
X140933333Y-131542619D01*
X140980952Y-131495000D01*
X141076190Y-131447380D01*
%TO.C,SW9*%
X138266666Y-113349761D02*
X138409523Y-113397380D01*
X138647619Y-113397380D01*
X138742857Y-113349761D01*
X138790476Y-113302142D01*
X138838095Y-113206904D01*
X138838095Y-113111666D01*
X138790476Y-113016428D01*
X138742857Y-112968809D01*
X138647619Y-112921190D01*
X138457142Y-112873571D01*
X138361904Y-112825952D01*
X138314285Y-112778333D01*
X138266666Y-112683095D01*
X138266666Y-112587857D01*
X138314285Y-112492619D01*
X138361904Y-112445000D01*
X138457142Y-112397380D01*
X138695238Y-112397380D01*
X138838095Y-112445000D01*
X139171428Y-112397380D02*
X139409523Y-113397380D01*
X139600000Y-112683095D01*
X139790476Y-113397380D01*
X140028571Y-112397380D01*
X140457142Y-113397380D02*
X140647619Y-113397380D01*
X140742857Y-113349761D01*
X140790476Y-113302142D01*
X140885714Y-113159285D01*
X140933333Y-112968809D01*
X140933333Y-112587857D01*
X140885714Y-112492619D01*
X140838095Y-112445000D01*
X140742857Y-112397380D01*
X140552380Y-112397380D01*
X140457142Y-112445000D01*
X140409523Y-112492619D01*
X140361904Y-112587857D01*
X140361904Y-112825952D01*
X140409523Y-112921190D01*
X140457142Y-112968809D01*
X140552380Y-113016428D01*
X140742857Y-113016428D01*
X140838095Y-112968809D01*
X140885714Y-112921190D01*
X140933333Y-112825952D01*
%TO.C,SW8*%
X138266666Y-94299761D02*
X138409523Y-94347380D01*
X138647619Y-94347380D01*
X138742857Y-94299761D01*
X138790476Y-94252142D01*
X138838095Y-94156904D01*
X138838095Y-94061666D01*
X138790476Y-93966428D01*
X138742857Y-93918809D01*
X138647619Y-93871190D01*
X138457142Y-93823571D01*
X138361904Y-93775952D01*
X138314285Y-93728333D01*
X138266666Y-93633095D01*
X138266666Y-93537857D01*
X138314285Y-93442619D01*
X138361904Y-93395000D01*
X138457142Y-93347380D01*
X138695238Y-93347380D01*
X138838095Y-93395000D01*
X139171428Y-93347380D02*
X139409523Y-94347380D01*
X139600000Y-93633095D01*
X139790476Y-94347380D01*
X140028571Y-93347380D01*
X140552380Y-93775952D02*
X140457142Y-93728333D01*
X140409523Y-93680714D01*
X140361904Y-93585476D01*
X140361904Y-93537857D01*
X140409523Y-93442619D01*
X140457142Y-93395000D01*
X140552380Y-93347380D01*
X140742857Y-93347380D01*
X140838095Y-93395000D01*
X140885714Y-93442619D01*
X140933333Y-93537857D01*
X140933333Y-93585476D01*
X140885714Y-93680714D01*
X140838095Y-93728333D01*
X140742857Y-93775952D01*
X140552380Y-93775952D01*
X140457142Y-93823571D01*
X140409523Y-93871190D01*
X140361904Y-93966428D01*
X140361904Y-94156904D01*
X140409523Y-94252142D01*
X140457142Y-94299761D01*
X140552380Y-94347380D01*
X140742857Y-94347380D01*
X140838095Y-94299761D01*
X140885714Y-94252142D01*
X140933333Y-94156904D01*
X140933333Y-93966428D01*
X140885714Y-93871190D01*
X140838095Y-93823571D01*
X140742857Y-93775952D01*
%TO.C,SW7*%
X138266666Y-75249761D02*
X138409523Y-75297380D01*
X138647619Y-75297380D01*
X138742857Y-75249761D01*
X138790476Y-75202142D01*
X138838095Y-75106904D01*
X138838095Y-75011666D01*
X138790476Y-74916428D01*
X138742857Y-74868809D01*
X138647619Y-74821190D01*
X138457142Y-74773571D01*
X138361904Y-74725952D01*
X138314285Y-74678333D01*
X138266666Y-74583095D01*
X138266666Y-74487857D01*
X138314285Y-74392619D01*
X138361904Y-74345000D01*
X138457142Y-74297380D01*
X138695238Y-74297380D01*
X138838095Y-74345000D01*
X139171428Y-74297380D02*
X139409523Y-75297380D01*
X139600000Y-74583095D01*
X139790476Y-75297380D01*
X140028571Y-74297380D01*
X140314285Y-74297380D02*
X140980952Y-74297380D01*
X140552380Y-75297380D01*
%TO.C,SW6*%
X119216666Y-132399761D02*
X119359523Y-132447380D01*
X119597619Y-132447380D01*
X119692857Y-132399761D01*
X119740476Y-132352142D01*
X119788095Y-132256904D01*
X119788095Y-132161666D01*
X119740476Y-132066428D01*
X119692857Y-132018809D01*
X119597619Y-131971190D01*
X119407142Y-131923571D01*
X119311904Y-131875952D01*
X119264285Y-131828333D01*
X119216666Y-131733095D01*
X119216666Y-131637857D01*
X119264285Y-131542619D01*
X119311904Y-131495000D01*
X119407142Y-131447380D01*
X119645238Y-131447380D01*
X119788095Y-131495000D01*
X120121428Y-131447380D02*
X120359523Y-132447380D01*
X120550000Y-131733095D01*
X120740476Y-132447380D01*
X120978571Y-131447380D01*
X121788095Y-131447380D02*
X121597619Y-131447380D01*
X121502380Y-131495000D01*
X121454761Y-131542619D01*
X121359523Y-131685476D01*
X121311904Y-131875952D01*
X121311904Y-132256904D01*
X121359523Y-132352142D01*
X121407142Y-132399761D01*
X121502380Y-132447380D01*
X121692857Y-132447380D01*
X121788095Y-132399761D01*
X121835714Y-132352142D01*
X121883333Y-132256904D01*
X121883333Y-132018809D01*
X121835714Y-131923571D01*
X121788095Y-131875952D01*
X121692857Y-131828333D01*
X121502380Y-131828333D01*
X121407142Y-131875952D01*
X121359523Y-131923571D01*
X121311904Y-132018809D01*
%TO.C,SW5*%
X119216666Y-113349761D02*
X119359523Y-113397380D01*
X119597619Y-113397380D01*
X119692857Y-113349761D01*
X119740476Y-113302142D01*
X119788095Y-113206904D01*
X119788095Y-113111666D01*
X119740476Y-113016428D01*
X119692857Y-112968809D01*
X119597619Y-112921190D01*
X119407142Y-112873571D01*
X119311904Y-112825952D01*
X119264285Y-112778333D01*
X119216666Y-112683095D01*
X119216666Y-112587857D01*
X119264285Y-112492619D01*
X119311904Y-112445000D01*
X119407142Y-112397380D01*
X119645238Y-112397380D01*
X119788095Y-112445000D01*
X120121428Y-112397380D02*
X120359523Y-113397380D01*
X120550000Y-112683095D01*
X120740476Y-113397380D01*
X120978571Y-112397380D01*
X121835714Y-112397380D02*
X121359523Y-112397380D01*
X121311904Y-112873571D01*
X121359523Y-112825952D01*
X121454761Y-112778333D01*
X121692857Y-112778333D01*
X121788095Y-112825952D01*
X121835714Y-112873571D01*
X121883333Y-112968809D01*
X121883333Y-113206904D01*
X121835714Y-113302142D01*
X121788095Y-113349761D01*
X121692857Y-113397380D01*
X121454761Y-113397380D01*
X121359523Y-113349761D01*
X121311904Y-113302142D01*
%TO.C,SW4*%
X119216666Y-94299761D02*
X119359523Y-94347380D01*
X119597619Y-94347380D01*
X119692857Y-94299761D01*
X119740476Y-94252142D01*
X119788095Y-94156904D01*
X119788095Y-94061666D01*
X119740476Y-93966428D01*
X119692857Y-93918809D01*
X119597619Y-93871190D01*
X119407142Y-93823571D01*
X119311904Y-93775952D01*
X119264285Y-93728333D01*
X119216666Y-93633095D01*
X119216666Y-93537857D01*
X119264285Y-93442619D01*
X119311904Y-93395000D01*
X119407142Y-93347380D01*
X119645238Y-93347380D01*
X119788095Y-93395000D01*
X120121428Y-93347380D02*
X120359523Y-94347380D01*
X120550000Y-93633095D01*
X120740476Y-94347380D01*
X120978571Y-93347380D01*
X121788095Y-93680714D02*
X121788095Y-94347380D01*
X121550000Y-93299761D02*
X121311904Y-94014047D01*
X121930952Y-94014047D01*
%TO.C,SW3*%
X119216666Y-75249761D02*
X119359523Y-75297380D01*
X119597619Y-75297380D01*
X119692857Y-75249761D01*
X119740476Y-75202142D01*
X119788095Y-75106904D01*
X119788095Y-75011666D01*
X119740476Y-74916428D01*
X119692857Y-74868809D01*
X119597619Y-74821190D01*
X119407142Y-74773571D01*
X119311904Y-74725952D01*
X119264285Y-74678333D01*
X119216666Y-74583095D01*
X119216666Y-74487857D01*
X119264285Y-74392619D01*
X119311904Y-74345000D01*
X119407142Y-74297380D01*
X119645238Y-74297380D01*
X119788095Y-74345000D01*
X120121428Y-74297380D02*
X120359523Y-75297380D01*
X120550000Y-74583095D01*
X120740476Y-75297380D01*
X120978571Y-74297380D01*
X121264285Y-74297380D02*
X121883333Y-74297380D01*
X121550000Y-74678333D01*
X121692857Y-74678333D01*
X121788095Y-74725952D01*
X121835714Y-74773571D01*
X121883333Y-74868809D01*
X121883333Y-75106904D01*
X121835714Y-75202142D01*
X121788095Y-75249761D01*
X121692857Y-75297380D01*
X121407142Y-75297380D01*
X121311904Y-75249761D01*
X121264285Y-75202142D01*
%TO.C,SW2*%
X191416666Y-52204761D02*
X191559523Y-52252380D01*
X191797619Y-52252380D01*
X191892857Y-52204761D01*
X191940476Y-52157142D01*
X191988095Y-52061904D01*
X191988095Y-51966666D01*
X191940476Y-51871428D01*
X191892857Y-51823809D01*
X191797619Y-51776190D01*
X191607142Y-51728571D01*
X191511904Y-51680952D01*
X191464285Y-51633333D01*
X191416666Y-51538095D01*
X191416666Y-51442857D01*
X191464285Y-51347619D01*
X191511904Y-51300000D01*
X191607142Y-51252380D01*
X191845238Y-51252380D01*
X191988095Y-51300000D01*
X192321428Y-51252380D02*
X192559523Y-52252380D01*
X192750000Y-51538095D01*
X192940476Y-52252380D01*
X193178571Y-51252380D01*
X193511904Y-51347619D02*
X193559523Y-51300000D01*
X193654761Y-51252380D01*
X193892857Y-51252380D01*
X193988095Y-51300000D01*
X194035714Y-51347619D01*
X194083333Y-51442857D01*
X194083333Y-51538095D01*
X194035714Y-51680952D01*
X193464285Y-52252380D01*
X194083333Y-52252380D01*
%TO.C,R6*%
X199513333Y-83732380D02*
X199180000Y-83256190D01*
X198941904Y-83732380D02*
X198941904Y-82732380D01*
X199322857Y-82732380D01*
X199418095Y-82780000D01*
X199465714Y-82827619D01*
X199513333Y-82922857D01*
X199513333Y-83065714D01*
X199465714Y-83160952D01*
X199418095Y-83208571D01*
X199322857Y-83256190D01*
X198941904Y-83256190D01*
X200370476Y-82732380D02*
X200180000Y-82732380D01*
X200084761Y-82780000D01*
X200037142Y-82827619D01*
X199941904Y-82970476D01*
X199894285Y-83160952D01*
X199894285Y-83541904D01*
X199941904Y-83637142D01*
X199989523Y-83684761D01*
X200084761Y-83732380D01*
X200275238Y-83732380D01*
X200370476Y-83684761D01*
X200418095Y-83637142D01*
X200465714Y-83541904D01*
X200465714Y-83303809D01*
X200418095Y-83208571D01*
X200370476Y-83160952D01*
X200275238Y-83113333D01*
X200084761Y-83113333D01*
X199989523Y-83160952D01*
X199941904Y-83208571D01*
X199894285Y-83303809D01*
%TO.C,R5*%
X199513333Y-88642380D02*
X199180000Y-88166190D01*
X198941904Y-88642380D02*
X198941904Y-87642380D01*
X199322857Y-87642380D01*
X199418095Y-87690000D01*
X199465714Y-87737619D01*
X199513333Y-87832857D01*
X199513333Y-87975714D01*
X199465714Y-88070952D01*
X199418095Y-88118571D01*
X199322857Y-88166190D01*
X198941904Y-88166190D01*
X200418095Y-87642380D02*
X199941904Y-87642380D01*
X199894285Y-88118571D01*
X199941904Y-88070952D01*
X200037142Y-88023333D01*
X200275238Y-88023333D01*
X200370476Y-88070952D01*
X200418095Y-88118571D01*
X200465714Y-88213809D01*
X200465714Y-88451904D01*
X200418095Y-88547142D01*
X200370476Y-88594761D01*
X200275238Y-88642380D01*
X200037142Y-88642380D01*
X199941904Y-88594761D01*
X199894285Y-88547142D01*
%TO.C,R3*%
X199513333Y-98462380D02*
X199180000Y-97986190D01*
X198941904Y-98462380D02*
X198941904Y-97462380D01*
X199322857Y-97462380D01*
X199418095Y-97510000D01*
X199465714Y-97557619D01*
X199513333Y-97652857D01*
X199513333Y-97795714D01*
X199465714Y-97890952D01*
X199418095Y-97938571D01*
X199322857Y-97986190D01*
X198941904Y-97986190D01*
X199846666Y-97462380D02*
X200465714Y-97462380D01*
X200132380Y-97843333D01*
X200275238Y-97843333D01*
X200370476Y-97890952D01*
X200418095Y-97938571D01*
X200465714Y-98033809D01*
X200465714Y-98271904D01*
X200418095Y-98367142D01*
X200370476Y-98414761D01*
X200275238Y-98462380D01*
X199989523Y-98462380D01*
X199894285Y-98414761D01*
X199846666Y-98367142D01*
%TO.C,R2*%
X199513333Y-103372380D02*
X199180000Y-102896190D01*
X198941904Y-103372380D02*
X198941904Y-102372380D01*
X199322857Y-102372380D01*
X199418095Y-102420000D01*
X199465714Y-102467619D01*
X199513333Y-102562857D01*
X199513333Y-102705714D01*
X199465714Y-102800952D01*
X199418095Y-102848571D01*
X199322857Y-102896190D01*
X198941904Y-102896190D01*
X199894285Y-102467619D02*
X199941904Y-102420000D01*
X200037142Y-102372380D01*
X200275238Y-102372380D01*
X200370476Y-102420000D01*
X200418095Y-102467619D01*
X200465714Y-102562857D01*
X200465714Y-102658095D01*
X200418095Y-102800952D01*
X199846666Y-103372380D01*
X200465714Y-103372380D01*
%TO.C,D3*%
X171581904Y-52842380D02*
X171581904Y-51842380D01*
X171820000Y-51842380D01*
X171962857Y-51890000D01*
X172058095Y-51985238D01*
X172105714Y-52080476D01*
X172153333Y-52270952D01*
X172153333Y-52413809D01*
X172105714Y-52604285D01*
X172058095Y-52699523D01*
X171962857Y-52794761D01*
X171820000Y-52842380D01*
X171581904Y-52842380D01*
X172486666Y-51842380D02*
X173105714Y-51842380D01*
X172772380Y-52223333D01*
X172915238Y-52223333D01*
X173010476Y-52270952D01*
X173058095Y-52318571D01*
X173105714Y-52413809D01*
X173105714Y-52651904D01*
X173058095Y-52747142D01*
X173010476Y-52794761D01*
X172915238Y-52842380D01*
X172629523Y-52842380D01*
X172534285Y-52794761D01*
X172486666Y-52747142D01*
%TO.C,D2*%
X165331904Y-52842380D02*
X165331904Y-51842380D01*
X165570000Y-51842380D01*
X165712857Y-51890000D01*
X165808095Y-51985238D01*
X165855714Y-52080476D01*
X165903333Y-52270952D01*
X165903333Y-52413809D01*
X165855714Y-52604285D01*
X165808095Y-52699523D01*
X165712857Y-52794761D01*
X165570000Y-52842380D01*
X165331904Y-52842380D01*
X166284285Y-51937619D02*
X166331904Y-51890000D01*
X166427142Y-51842380D01*
X166665238Y-51842380D01*
X166760476Y-51890000D01*
X166808095Y-51937619D01*
X166855714Y-52032857D01*
X166855714Y-52128095D01*
X166808095Y-52270952D01*
X166236666Y-52842380D01*
X166855714Y-52842380D01*
%TD*%
M02*
