M48
; DRILL file {KiCad (5.1.6)-1} date 05/12/21 17:33:33
; FORMAT={-:-/ absolute / metric / decimal}
; #@! TF.CreationDate,2021-05-12T17:33:33+01:00
; #@! TF.GenerationSoftware,Kicad,Pcbnew,(5.1.6)-1
; #@! TF.FileFunction,Plated,1,2,PTH
FMAT,2
METRIC
T1C0.400
T2C0.800
T3C0.900
T4C1.000
T5C1.100
T6C1.499
T7C1.500
T8C3.000
%
G90
G05
T1
X187.45Y-83.95
X189.95Y-70.8
X193.7Y-70.4
T2
X194.6Y-90.56
X204.76Y-90.56
X194.6Y-110.2
X204.76Y-110.2
X194.6Y-95.47
X204.76Y-95.47
X194.6Y-85.65
X204.76Y-85.65
X194.6Y-100.38
X204.76Y-100.38
X194.6Y-105.29
X204.76Y-105.29
T3
X164.8Y-55.35
X167.34Y-55.35
X171.05Y-55.35
X173.59Y-55.35
X158.55Y-55.35
X161.09Y-55.35
X177.3Y-55.35
X179.84Y-55.35
T4
X189.95Y-56.5
X189.95Y-59.0
X189.95Y-61.5
X204.45Y-56.5
X204.45Y-61.5
T5
X125.38Y-53.28
X125.38Y-68.52
X127.92Y-53.28
X127.92Y-68.52
X130.46Y-53.28
X130.46Y-68.52
X133.0Y-53.28
X133.0Y-68.52
X135.54Y-53.28
X135.54Y-68.52
X138.08Y-53.28
X138.08Y-68.52
X140.62Y-53.28
X140.62Y-68.52
X143.16Y-53.28
X143.16Y-68.52
X145.7Y-53.28
X145.7Y-68.52
X148.24Y-53.28
X148.24Y-68.52
X150.78Y-53.28
X150.78Y-68.52
X153.32Y-53.28
X153.32Y-68.52
X163.7Y-63.9
X163.7Y-68.4
X170.2Y-63.9
X170.2Y-68.4
T6
X173.89Y-118.66
X180.24Y-116.12
X135.79Y-137.71
X142.14Y-135.17
X154.84Y-80.56
X161.19Y-78.02
X135.79Y-80.56
X142.14Y-78.02
X116.74Y-99.61
X123.09Y-97.07
X154.84Y-137.71
X161.19Y-135.17
X154.84Y-99.61
X161.19Y-97.07
X173.89Y-137.71
X180.24Y-135.17
X116.74Y-118.66
X123.09Y-116.12
X135.79Y-118.66
X142.14Y-116.12
X173.89Y-80.56
X180.24Y-78.02
X173.89Y-99.61
X180.24Y-97.07
X116.74Y-80.56
X123.09Y-78.02
X135.79Y-99.61
X142.14Y-97.07
X154.84Y-118.66
X161.19Y-116.12
X116.74Y-137.71
X123.09Y-135.17
T8
X202.5Y-74.55
X202.5Y-144.4
X116.45Y-54.9
T7
G00X196.8Y-53.4
M15
G01X198.1Y-53.4
M16
G05
G00X196.8Y-64.6
M15
G01X198.1Y-64.6
M16
G05
T0
M30
