M48
; DRILL file {KiCad (5.1.6)-1} date 05/12/21 17:33:33
; FORMAT={-:-/ absolute / metric / decimal}
; #@! TF.CreationDate,2021-05-12T17:33:33+01:00
; #@! TF.GenerationSoftware,Kicad,Pcbnew,(5.1.6)-1
; #@! TF.FileFunction,NonPlated,1,2,NPTH
FMAT,2
METRIC
T1C1.702
T2C3.988
%
G90
G05
T1
X172.62Y-121.2
X182.78Y-121.2
X134.52Y-140.25
X144.68Y-140.25
X153.57Y-83.1
X163.73Y-83.1
X134.52Y-83.1
X144.68Y-83.1
X115.47Y-102.15
X125.63Y-102.15
X153.57Y-140.25
X163.73Y-140.25
X153.57Y-102.15
X163.73Y-102.15
X172.62Y-140.25
X182.78Y-140.25
X115.47Y-121.2
X125.63Y-121.2
X134.52Y-121.2
X144.68Y-121.2
X172.62Y-83.1
X182.78Y-83.1
X172.62Y-102.15
X182.78Y-102.15
X115.47Y-83.1
X125.63Y-83.1
X134.52Y-102.15
X144.68Y-102.15
X153.57Y-121.2
X163.73Y-121.2
X115.47Y-140.25
X125.63Y-140.25
T2
X177.7Y-140.25
X120.55Y-121.2
X139.6Y-121.2
X177.7Y-83.1
X177.7Y-102.15
X120.55Y-83.1
X139.6Y-102.15
X158.65Y-121.2
X120.55Y-140.25
X177.7Y-121.2
X139.6Y-140.25
X158.65Y-83.1
X139.6Y-83.1
X120.55Y-102.15
X158.65Y-140.25
X158.65Y-102.15
T0
M30
